<?xml version="1.0" encoding="UTF-8"?>
<svg width="21px" height="21px" viewBox="0 0 21 21" version="1.1" xmlns="http://www.w3.org/2000/svg" xmlns:xlink="http://www.w3.org/1999/xlink">
    <!-- Generator: Sketch 52.2 (67145) - http://www.bohemiancoding.com/sketch -->
    <title>Artboard Copy 39</title>
    <desc>Created with Sketch.</desc>
    <g id="Artboard-Copy-39" stroke="none" stroke-width="1" fill="none" fill-rule="evenodd">
        <path d="M16.5349318,5.92057538 C16.538545,5.91314232 16.5371882,5.90465878 16.5304775,5.89778604 L15.0964712,4.4129513 C15.0909044,4.40719822 15.0811928,4.40572161 15.0739846,4.40964184 L13.5972216,5.21454678 C13.0511795,5.51242354 12.3677605,5.25587362 12.1534657,4.67342027 L11.538908,3.01152407 C11.5364748,3.00485741 11.5295011,3 11.5214865,3 L9.45566375,3 C9.44716631,3 9.43919897,3.00583161 9.43671061,3.01351262 L8.92188358,4.63181491 C8.73445912,5.22545588 8.06383243,5.51269753 7.50434213,5.24074926 L5.91699667,4.46780576 C5.90788316,4.46341179 5.8986438,4.46485411 5.89331192,4.46990306 L4.41220274,5.88959014 C4.4055788,5.89593826 4.40415111,5.90510096 4.40900859,5.91394973 L5.21134293,7.39089067 C5.50893128,7.93585335 5.2532268,8.61888105 4.6707562,8.83581368 L3.01331386,9.44897766 C3.00534428,9.45194997 3,9.45964873 3,9.46827873 L3,11.5369215 C3,11.5467549 3.00561606,11.5544803 3.01226799,11.5566424 L4.62996064,12.0723493 C5.2217369,12.2603414 5.50893788,12.9298632 5.23791656,13.48897 L4.46503647,15.0815701 C4.46095256,15.0899713 4.46217983,15.0978008 4.46922498,15.1051063 L5.88593271,16.5871916 C5.89183405,16.5933661 5.90023961,16.5946841 5.90790494,16.5905173 L7.40566958,15.7813276 C7.95064365,15.4870078 8.6305519,15.7440382 8.84660485,16.3257307 L9.46003306,17.9866421 C9.46325688,17.9953096 9.46998501,18 9.47851347,18 L11.5443363,18 C11.5525393,18 11.5596037,17.9948399 11.5622508,17.9864874 L12.0775494,16.3666994 C12.2666616,15.7741536 12.9351833,15.4878136 13.4956579,15.7592507 L15.0858736,16.5335894 C15.0919891,16.5365862 15.1002071,16.5352929 15.105523,16.5302182 L16.58572,15.1104099 C16.5922956,15.1041081 16.5938306,15.0942799 16.5898233,15.0868518 L15.7882812,13.6094597 C15.4913957,13.063748 15.7468119,12.3821446 16.3289852,12.1653221 L17.9887926,11.5502421 C17.9952421,11.5478697 18,11.5410156 18,11.5317213 L18,9.46307852 C18,9.45482686 17.9941175,9.44676801 17.9866049,9.4443694 L16.368547,8.92821412 C15.7778518,8.73852569 15.4912505,8.06974817 15.7621956,7.51079898 L16.5349318,5.92057538 Z M16.661838,7.94742632 C16.6564343,7.95857395 16.6622942,7.97224785 16.6733757,7.97580741 L18.2906338,8.49170662 C18.7128934,8.6265239 19,9.01985005 19,9.46307852 L19,11.5317213 C19,11.9592262 18.7347327,12.3413596 18.3351498,12.4883441 L16.677235,13.1027235 C16.6658167,13.1069761 16.6607202,13.1205766 16.6669764,13.132077 L17.4693225,14.6109528 C17.687308,15.0148784 17.609264,15.5145683 17.2777941,15.8322363 L15.7969524,17.2526614 C15.4885737,17.5471459 15.0292178,17.6194372 14.6469582,17.4321169 L13.0588252,16.6587929 C13.0467569,16.6529482 13.0341656,16.6583413 13.030349,16.6702989 L12.5153637,18.2891017 C12.3810762,18.7128885 11.9880112,19 11.5443363,19 L9.47851347,19 C9.05158067,19 8.6714463,18.7349956 8.52236626,18.3341757 L7.9088587,16.6730509 C7.90444573,16.6611696 7.89061629,16.6559416 7.88092985,16.6611728 L6.38446542,17.4696578 C5.98114305,17.6890203 5.48073731,17.610558 5.16303728,17.278149 L3.74809832,15.797905 C3.45051375,15.489709 3.37839643,15.0296247 3.56552388,14.6446754 L4.33816203,13.0525737 C4.34345331,13.041658 4.33795111,13.0288312 4.32671286,13.0252609 L2.70624093,12.5086622 C2.28488177,12.3720941 2,11.980213 2,11.5369215 L2,9.46827873 C2,9.04218959 2.26468082,8.66090091 2.66510878,8.51156021 L4.32276497,7.89831653 C4.33383704,7.89419288 4.33910892,7.88011085 4.33315305,7.86920159 L3.53149936,6.39350293 C3.30923364,5.98920305 3.38756593,5.48647899 3.72025511,5.16764244 L5.20320283,3.74620231 C5.51184722,3.45340322 5.96793667,3.38220477 6.35304184,3.56788308 L7.94181845,4.3415194 C7.95263603,4.34677744 7.96487477,4.34153537 7.96861234,4.32970111 L8.48447626,2.70815318 C8.62074727,2.28656207 9.01225787,2 9.45566375,2 L11.5214865,2 C11.9487667,2 12.3315576,2.26662746 12.4775632,2.66667333 L13.0916757,4.32735484 C13.0953903,4.33745106 13.1081339,4.34223489 13.1184854,4.33658801 L14.5958007,3.53138222 C14.9977176,3.31278419 15.4968687,3.38867808 15.8154491,3.71791859 L17.2474781,5.20072132 C17.5479934,5.50778822 17.6221344,5.97136341 17.4343322,6.35770112 L16.661838,7.94742632 Z M10.5,14 C8.56700338,14 7,12.4329966 7,10.5 C7,8.56700338 8.56700338,7 10.5,7 C12.4329966,7 14,8.56700338 14,10.5 C14,12.4329966 12.4329966,14 10.5,14 Z M10.5,13 C11.8807119,13 13,11.8807119 13,10.5 C13,9.11928813 11.8807119,8 10.5,8 C9.11928813,8 8,9.11928813 8,10.5 C8,11.8807119 9.11928813,13 10.5,13 Z" id="Combined-Shape" fill="#111339" fill-rule="nonzero"></path>
    </g>
</svg>