<?xml version="1.0" encoding="UTF-8"?>
<svg width="21px" height="21px" viewBox="0 0 21 21" version="1.1" xmlns="http://www.w3.org/2000/svg" xmlns:xlink="http://www.w3.org/1999/xlink">
    <!-- Generator: Sketch 52.2 (67145) - http://www.bohemiancoding.com/sketch -->
    <title>Artboard Copy 61</title>
    <desc>Created with Sketch.</desc>
    <g id="Artboard-Copy-61" stroke="none" stroke-width="1" fill="none" fill-rule="evenodd">
        <path d="M7,17.5 C5.8954305,17.5 5,16.6045695 5,15.5 C5,14.3954305 5.8954305,13.5 7,13.5 C8.1045695,13.5 9,14.3954305 9,15.5 C9,16.6045695 8.1045695,17.5 7,17.5 Z M7,16.5 C7.55228475,16.5 8,16.0522847 8,15.5 C8,14.9477153 7.55228475,14.5 7,14.5 C6.44771525,14.5 6,14.9477153 6,15.5 C6,16.0522847 6.44771525,16.5 7,16.5 Z" id="Oval-Copy" fill="#111339" fill-rule="nonzero"></path>
        <path d="M16.9369913,11 C16.7149699,11.8626136 15.9319197,12.5 15,12.5 C14.0680803,12.5 13.2850301,11.8626136 13.0630087,11 L2.5,11 C2.22385763,11 2,10.7761424 2,10.5 C2,10.2238576 2.22385763,10 2.5,10 L13.0630087,10 C13.2850301,9.13738639 14.0680803,8.5 15,8.5 C15.9319197,8.5 16.7149699,9.13738639 16.9369913,10 L18.5,10 C18.7761424,10 19,10.2238576 19,10.5 C19,10.7761424 18.7761424,11 18.5,11 L16.9369913,11 Z M15,11.5 C15.5522847,11.5 16,11.0522847 16,10.5 C16,9.94771525 15.5522847,9.5 15,9.5 C14.4477153,9.5 14,9.94771525 14,10.5 C14,11.0522847 14.4477153,11.5 15,11.5 Z" id="Combined-Shape" fill="#111339" fill-rule="nonzero"></path>
        <path d="M6,7.5 C4.8954305,7.5 4,6.6045695 4,5.5 C4,4.3954305 4.8954305,3.5 6,3.5 C7.1045695,3.5 8,4.3954305 8,5.5 C8,6.6045695 7.1045695,7.5 6,7.5 Z M6,6.5 C6.55228475,6.5 7,6.05228475 7,5.5 C7,4.94771525 6.55228475,4.5 6,4.5 C5.44771525,4.5 5,4.94771525 5,5.5 C5,6.05228475 5.44771525,6.5 6,6.5 Z" id="Oval-Copy-3" fill="#111339" fill-rule="nonzero"></path>
        <path d="M7.5,6 C7.22385763,6 7,5.77614237 7,5.5 C7,5.22385763 7.22385763,5 7.5,5 L18.5,5 C18.7761424,5 19,5.22385763 19,5.5 C19,5.77614237 18.7761424,6 18.5,6 L7.5,6 Z M2.5,6 C2.22385763,6 2,5.77614237 2,5.5 C2,5.22385763 2.22385763,5 2.5,5 L4.5,5 C4.77614237,5 5,5.22385763 5,5.5 C5,5.77614237 4.77614237,6 4.5,6 L2.5,6 Z" id="Combined-Shape" fill="#111339" fill-rule="nonzero"></path>
        <path d="M8.5,16 C8.22385763,16 8,15.7761424 8,15.5 C8,15.2238576 8.22385763,15 8.5,15 L18.5,15 C18.7761424,15 19,15.2238576 19,15.5 C19,15.7761424 18.7761424,16 18.5,16 L8.5,16 Z M2.5,16 C2.22385763,16 2,15.7761424 2,15.5 C2,15.2238576 2.22385763,15 2.5,15 L5.5,15 C5.77614237,15 6,15.2238576 6,15.5 C6,15.7761424 5.77614237,16 5.5,16 L2.5,16 Z" id="Combined-Shape" fill="#111339" fill-rule="nonzero"></path>
    </g>
</svg>