<?xml version="1.0" encoding="UTF-8"?>
<svg width="21px" height="21px" viewBox="0 0 21 21" version="1.1" xmlns="http://www.w3.org/2000/svg" xmlns:xlink="http://www.w3.org/1999/xlink">
    <!-- Generator: Sketch 52.2 (67145) - http://www.bohemiancoding.com/sketch -->
    <title>Artboard Copy 65</title>
    <desc>Created with Sketch.</desc>
    <g id="Artboard-Copy-65" stroke="none" stroke-width="1" fill="none" fill-rule="evenodd">
        <g id="Group-5" transform="translate(4.000000, 4.000000)" fill="#111339" fill-rule="nonzero">
            <path d="M10.1072248,9.40011805 L12.8535534,12.1464466 C13.0488155,12.3417088 13.0488155,12.6582912 12.8535534,12.8535534 C12.6582912,13.0488155 12.3417088,13.0488155 12.1464466,12.8535534 L9.40011805,10.1072248 C8.40567705,10.9421582 7.12305424,11.445 5.723,11.445 C2.56269649,11.445 -1.45661261e-13,8.8829813 -1.45661261e-13,5.723 C-1.45661261e-13,2.56285763 2.56285763,-3.55271368e-15 5.723,-3.55271368e-15 C8.8829813,-3.55271368e-15 11.445,2.56269649 11.445,5.723 C11.445,7.12305424 10.9421582,8.40567705 10.1072248,9.40011805 Z M1,5.723 C1,8.33063732 3.11492203,10.445 5.723,10.445 C8.33085763,10.445 10.445,8.33085763 10.445,5.723 C10.445,3.11492203 8.33063732,1 5.723,1 C3.11514237,1 1,3.11514237 1,5.723 Z" id="Combined-Shape"></path>
        </g>
    </g>
</svg>