<?xml version="1.0" encoding="UTF-8"?>
<svg width="21px" height="21px" viewBox="0 0 21 21" version="1.1" xmlns="http://www.w3.org/2000/svg" xmlns:xlink="http://www.w3.org/1999/xlink">
    <!-- Generator: Sketch 52.2 (67145) - http://www.bohemiancoding.com/sketch -->
    <title>Artboard Copy 63</title>
    <desc>Created with Sketch.</desc>
    <g id="Artboard-Copy-63" stroke="none" stroke-width="1" fill="none" fill-rule="evenodd">
        <path d="M11.8745534,17.5925534 C11.6793011,17.7878057 11.362738,17.787817 11.1674718,17.5925786 L4.14647179,10.5725786 C4.0526882,10.4788083 4,10.3516206 4,10.219 L4,4.5 C4,4.22385763 4.22385763,4 4.5,4 L10.219,4 C10.3516206,4 10.4788083,4.0526882 10.5725786,4.14647179 L17.5925786,11.1674718 C17.787817,11.362738 17.7878057,11.6793011 17.5925534,11.8745534 L11.8745534,17.5925534 Z M16.5319184,11.5209748 L10.0118724,5 L5,5 L5,10.0118724 L11.5209748,16.5319184 L16.5319184,11.5209748 Z M8,10 C6.8954305,10 6,9.1045695 6,8 C6,6.8954305 6.8954305,6 8,6 C9.1045695,6 10,6.8954305 10,8 C10,9.1045695 9.1045695,10 8,10 Z M8,9 C8.55228475,9 9,8.55228475 9,8 C9,7.44771525 8.55228475,7 8,7 C7.44771525,7 7,7.44771525 7,8 C7,8.55228475 7.44771525,9 8,9 Z" id="Combined-Shape" fill="#111339" fill-rule="nonzero"></path>
    </g>
</svg>