<svg xmlns="http://www.w3.org/2000/svg" width="17" height="16" viewBox="0 0 17 16"><defs><clipPath id="vdy5a"><path fill="#fff" d="M8.5 0l2.801 5.028L17 6.112l-3.966 4.19.72 5.698L8.5 13.56 3.247 16l.72-5.698-3.966-4.19L5.7 5.028 8.5 0"/></clipPath></defs><g><g><path fill="#fff" d="M8.5 0l2.801 5.028L17 6.112l-3.966 4.19.72 5.698L8.5 13.56 3.247 16l.72-5.698-3.966-4.19L5.7 5.028 8.5 0"/><path fill="none" stroke="#e0e0e0" stroke-miterlimit="50" stroke-width="2" d="M8.5 0v0l2.801 5.028v0L17 6.112v0l-3.966 4.19v0l.72 5.698v0L8.5 13.56v0L3.247 16v0l.72-5.698v0L.001 6.112v0L5.7 5.028v0L8.5 0v0" clip-path="url(&quot;#vdy5a&quot;)"/></g></g></svg>